:FULLY-SPECIFIED
:FORCE-ALL-JOINTS-BE-3DOF
:DEGREES
102
root 7.20899 16.8067 -26.8895 2.61512 7.51993 -4.20799
lfemur -28.0972 11.4373 -12.1234
ltibia 41.6338 -0 0
lfoot -13.561 -2.20186 -0.0522092
ltoes 23.0844 -0 0
rfemur -32.8776 -6.70781 16.8046
rtibia 35.1546 -0 0
rfoot -13.7826 -6.19535 2.10709
rtoes -14.1728 0 0
lowerback 4.33442 1.42325 1.85447
upperback 0.766914 2.09622 1.08498
thorax -1.34252 0.995394 0.359657
lowerneck -11.2291 -3.35747 2.47365
upperneck -3.24158 -4.73352 1.31249
head 0.847457 -2.36364 -0.168993
lclavicle -3.91929e-14 1.08101e-14 -4.05731e-31
lhumerus -41.8946 -10.1045 91.1173
lradius 47.0248 -0 0
lwrist 10.6624 0 0
lhand -3.68969 4.01105 0.194923
lfingers 7.12502 -0 0
lthumb 22.0287 32.5208 0.103643
rclavicle -3.91929e-14 1.08101e-14 -4.05731e-31
rhumerus -37.8264 1.91169 -76.095
rradius 52.6727 -0 0
rwrist 4.40311 0 0
rhand -12.1185 -19.3068 0.312965
rfingers 7.12502 -0 0
rthumb 13.9113 -48.3758 0.420168
103
root 7.2674 16.8144 -26.8498 2.06592 7.72115 -4.07342
lfemur -27.2655 11.362 -12.2307
ltibia 41.1682 -0 0
lfoot -13.3225 -2.64447 -0.0413838
ltoes 23.3979 -0 0
rfemur -34.2579 -6.98726 16.3962
rtibia 35.7278 -0 0
rfoot -12.793 -5.42808 2.14926
rtoes -14.3162 0 0
lowerback 4.82655 1.26751 1.71931
upperback 0.948163 1.8952 1.11895
thorax -1.42792 0.894626 0.47884
lowerneck -11.2741 -3.33115 2.41687
upperneck -3.08429 -4.69638 1.29823
head 0.907537 -2.34293 -0.164974
lclavicle -4.09453e-14 1.07269e-14 -4.11189e-31
lhumerus -41.8227 -10.2514 91.1224
lradius 47.1449 -0 0
lwrist 10.7376 0 0
lhand -3.1913 4.13664 0.199659
lfingers 7.12502 -0 0
lthumb 22.5063 32.5829 0.106616
rclavicle -4.09453e-14 1.07269e-14 -4.11189e-31
rhumerus -37.9047 1.74853 -75.1831
rradius 53.2217 -0 0
rwrist 4.23341 0 0
rhand -11.3628 -19.1667 0.319775
rfingers 7.12502 -0 0
rthumb 14.6386 -48.1745 0.428817
104
root 7.32517 16.8222 -26.8109 1.51028 7.92112 -3.93521
lfemur -26.4083 11.2779 -12.3476
ltibia 40.6853 -0 0
lfoot -13.0962 -3.0922 -0.0295179
ltoes 23.7287 -0 0
rfemur -35.6567 -7.27205 15.9853
rtibia 36.3107 -0 0
rfoot -11.7904 -4.65246 2.17852
rtoes -14.4424 0 0
lowerback 5.32248 1.11015 1.57797
upperback 1.13153 1.69014 1.15233
thorax -1.51331 0.792101 0.601103
lowerneck -11.3188 -3.30275 2.35908
upperneck -2.92307 -4.65636 1.28366
head 0.968865 -2.32075 -0.160857
lclavicle -4.2685e-14 1.06421e-14 -4.14051e-31
lhumerus -41.7487 -10.4043 91.1317
lradius 47.2624 -0 0
lwrist 10.8113 0 0
lhand -2.68781 4.2648 0.203267
lfingers 7.12502 -0 0
lthumb 22.9889 32.6468 0.109017
rclavicle -4.2685e-14 1.06421e-14 -4.14051e-31
rhumerus -37.9902 1.57737 -74.2608
rradius 53.7726 -0 0
rwrist 4.06505 0 0
rhand -10.601 -19.0241 0.324721
rfingers 7.12502 -0 0
rthumb 15.3717 -47.9699 0.434934
105
root 7.38207 16.8301 -26.7732 0.949105 8.11941 -3.79343
lfemur -25.5265 11.1849 -12.4745
ltibia 40.1852 -0 0
lfoot -12.8829 -3.54433 -0.0167893
ltoes 24.0769 -0 0
rfemur -37.072 -7.56176 15.5726
rtibia 36.9025 -0 0
rfoot -10.7766 -3.87001 2.1944
rtoes -14.5503 0 0
lowerback 5.82135 0.951479 1.43051
upperback 1.31673 1.48131 1.18504
thorax -1.59852 0.687957 0.726319
lowerneck -11.3631 -3.27225 2.30038
upperneck -2.75809 -4.61341 1.2688
head 1.03137 -2.29709 -0.156643
lclavicle -4.44081e-14 1.05556e-14 -4.14268e-31
lhumerus -41.6725 -10.563 91.1455
lradius 47.3768 -0 0
lwrist 10.8832 0 0
lhand -2.18003 4.39535 0.20569
lfingers 7.12502 -0 0
lthumb 23.4755 32.7126 0.110809
rclavicle -4.44081e-14 1.05556e-14 -4.14268e-31
rhumerus -38.0832 1.39835 -73.3295
rradius 54.3241 -0 0
rwrist 3.89846 0 0
rhand -9.83464 -18.879 0.327722
rfingers 7.12502 -0 0
rthumb 16.1094 -47.7623 0.438418
106
root 7.43788 16.8382 -26.7367 0.383265 8.31556 -3.6481
lfemur -24.6208 11.0831 -12.612
ltibia 39.6682 -0 0
lfoot -12.6839 -4.00015 -0.00339982
ltoes 24.4424 -0 0
rfemur -38.5016 -7.85588 15.1586
rtibia 37.5023 -0 0
rfoot -9.75324 -3.08226 2.1965
rtoes -14.6388 0 0
lowerback 6.32231 0.791776 1.277
upperback 1.50347 1.26895 1.21697
thorax -1.68337 0.582329 0.85436
lowerneck -11.4069 -3.2396 2.24084
upperneck -2.58952 -4.56748 1.25367
head 1.09496 -2.27193 -0.152335
lclavicle -4.61102e-14 1.04677e-14 -4.11807e-31
lhumerus -41.5942 -10.7275 91.1639
lradius 47.4879 -0 0
lwrist 10.9533 0 0
lhand -1.66883 4.52812 0.206878
lfingers 7.12502 -0 0
lthumb 23.9654 32.78 0.111957
rclavicle -4.61102e-14 1.04677e-14 -4.11807e-31
rhumerus -38.1839 1.2116 -72.3905
rradius 54.8753 -0 0
rwrist 3.73403 0 0
rhand -9.0649 -18.7319 0.328713
rfingers 7.12502 -0 0
rthumb 16.8502 -47.5521 0.439189
